<mxfile host="app.diagrams.net" modified="2022-01-15T22:02:07.630Z" agent="5.0 (Windows)" etag="oQ4yx-6I2rBdEliYE1C5" version="16.2.7" type="github">
  <diagram id="VauM-asOZjBpcQBod1W1" name="Page-1">
    <mxGraphModel dx="1027" dy="571" grid="1" gridSize="10" guides="1" tooltips="1" connect="1" arrows="1" fold="1" page="1" pageScale="1" pageWidth="827" pageHeight="1169" math="0" shadow="0">
      <root>
        <mxCell id="0" />
        <mxCell id="1" parent="0" />
        <mxCell id="dzH_pWiBcKx7Zo8vlK67-3" value="START" style="rounded=1;whiteSpace=wrap;html=1;" vertex="1" parent="1">
          <mxGeometry x="354" y="10" width="120" height="30" as="geometry" />
        </mxCell>
        <mxCell id="dzH_pWiBcKx7Zo8vlK67-4" value="&lt;div&gt;User&lt;/div&gt;&lt;div&gt;Pass&lt;/div&gt;" style="rhombus;whiteSpace=wrap;html=1;" vertex="1" parent="1">
          <mxGeometry x="374" y="80" width="80" height="80" as="geometry" />
        </mxCell>
      </root>
    </mxGraphModel>
  </diagram>
</mxfile>
